<?xml version="1.0" standalone="no"?>
<!DOCTYPE svg PUBLIC "-//W3C//DTD SVG 20010904//EN"
 "http://www.w3.org/TR/2001/REC-SVG-20010904/DTD/svg10.dtd">
<svg version="1.0" xmlns="http://www.w3.org/2000/svg"
 width="735.000000pt" height="490.000000pt" viewBox="0 0 735.000000 490.000000"
 preserveAspectRatio="xMidYMid meet">

<g transform="translate(0.000000,490.000000) scale(0.100000,-0.100000)"
fill="#000000" stroke="none">
<path d="M3429 4539 c-1 -8 -1 -17 0 -21 28 -211 48 -356 71 -538 16 -124 38
-295 49 -380 30 -226 81 -658 80 -678 0 -9 -6 1 -13 23 -7 22 -27 56 -44 75
-26 28 -39 35 -72 35 -22 0 -40 -4 -40 -8 0 -5 -5 -7 -12 -5 -19 7 -48 126
-55 226 -4 58 -11 99 -20 107 -16 16 -21 43 -68 350 -43 273 -112 678 -130
763 -3 12 -12 22 -20 22 -17 0 -21 -16 -5 -22 11 -3 24 -73 69 -353 34 -214
46 -314 32 -275 -5 14 -10 39 -11 55 -1 26 -3 27 -10 10 l-9 -20 -1 20 -1 20
-8 -20 -8 -20 -5 20 c-5 16 -6 17 -7 3 -1 -23 -21 -24 -21 -1 0 9 -3 13 -7 10
-3 -4 0 -18 7 -32 7 -14 11 -28 7 -31 -3 -3 -15 11 -26 33 -18 35 -20 36 -22
13 -1 -31 -43 173 -69 345 -24 156 -30 188 -37 182 -4 -5 9 -97 67 -482 30
-197 31 -203 20 -180 -5 11 -9 14 -9 8 -1 -20 -21 -15 -21 5 -1 16 -1 16 -11
0 -5 -9 -15 -15 -22 -12 -7 2 -30 -14 -51 -37 -35 -37 -38 -45 -34 -84 4 -31
2 -42 -6 -39 -7 3 -26 -10 -43 -28 -17 -18 -56 -53 -87 -77 -34 -27 -55 -50
-52 -58 3 -8 -1 -16 -10 -20 -11 -4 -13 -13 -9 -34 7 -32 1 -36 -21 -14 -25
24 -35 18 -34 -22 1 -52 -2 -73 -10 -73 -4 0 -10 -13 -13 -30 -5 -22 -12 -30
-27 -30 -12 0 -33 -11 -47 -24 -14 -13 -51 -32 -82 -41 -31 -9 -90 -29 -131
-43 l-75 -27 -9 -48 c-9 -44 -12 -48 -33 -42 -13 3 -23 1 -23 -5 0 -5 8 -10
17 -10 14 0 13 -3 -5 -23 -18 -19 -20 -28 -12 -56 10 -36 69 -97 145 -151 28
-19 58 -44 67 -55 29 -33 57 -135 62 -225 5 -70 11 -97 40 -155 38 -77 95
-140 169 -188 44 -28 47 -32 31 -44 -12 -9 -52 -13 -120 -13 l-102 0 -31 -35
c-17 -19 -40 -35 -52 -35 -12 0 -44 24 -80 61 -32 33 -59 56 -59 51 0 -5 -16
-13 -35 -16 -29 -6 -40 -2 -62 19 -15 14 -36 25 -45 25 -10 0 -18 5 -18 10 0
6 -19 10 -41 10 l-41 0 6 -44 c5 -32 1 -58 -15 -102 -12 -32 -26 -65 -32 -72
-6 -7 -7 -44 -3 -94 6 -72 10 -84 34 -105 15 -12 30 -23 34 -23 4 0 31 -30 60
-67 44 -55 64 -72 123 -99 67 -31 125 -79 172 -142 13 -17 23 -34 23 -39 1
-11 69 -59 100 -68 14 -5 53 -13 87 -20 52 -10 61 -10 52 2 -6 7 -23 14 -38
14 -25 1 -25 2 4 8 17 4 44 3 60 -1 39 -11 205 -13 236 -3 13 4 41 19 62 33
36 24 92 32 155 22 22 -4 31 -35 14 -56 -4 -5 -3 -6 3 -1 15 12 27 8 21 -8 -3
-8 -1 -15 3 -15 5 0 11 5 13 12 3 9 12 9 38 0 111 -39 261 10 264 88 1 16 5
30 10 30 8 0 6 17 -9 86 -4 16 25 -36 65 -116 84 -171 231 -421 245 -417 34
11 107 520 100 699 l-4 97 30 -11 c16 -5 26 -15 22 -21 -3 -6 -1 -7 5 -3 7 4
20 2 29 -4 16 -10 16 -11 -2 -5 -16 5 -17 4 -8 -6 7 -7 27 -12 45 -11 18 0 39
-5 48 -11 13 -11 13 -10 1 6 -8 10 -9 17 -3 17 23 0 48 41 51 81 2 47 -17 94
-54 131 -22 22 -23 27 -9 32 9 3 20 3 25 0 5 -3 8 -2 7 3 -2 4 7 18 19 30 64
64 18 229 -80 288 -15 9 -36 34 -48 57 -23 44 -18 73 21 128 22 31 100 82 129
85 55 5 150 79 157 123 1 6 23 35 48 63 25 28 46 57 46 64 0 7 16 32 35 55 51
62 69 133 62 250 -4 52 -15 131 -26 175 -11 44 -22 105 -25 135 -7 75 -81 220
-152 299 -72 79 -146 115 -269 132 -112 15 -307 7 -358 -14 -45 -19 -37 -51
-77 298 -44 381 -39 355 -63 355 -19 0 -19 -1 -5 -12 13 -10 24 -78 52 -323
20 -170 36 -356 36 -412 0 -69 8 -145 25 -230 14 -71 43 -281 65 -468 51 -438
88 -748 96 -805 l6 -45 -18 25 c-9 14 -35 49 -57 78 -37 49 -42 62 -58 170
-10 64 -28 194 -39 287 -11 94 -29 238 -40 320 -11 83 -24 191 -30 240 -5 50
-25 209 -44 355 -41 318 -70 557 -86 703 -6 59 -14 115 -17 124 -5 13 -3 15
13 8 10 -4 33 -9 49 -11 29 -4 29 -3 -4 7 -18 6 -44 17 -57 26 -20 12 -24 13
-25 2z m-199 -649 c0 -5 -2 -10 -4 -10 -3 0 -8 5 -11 10 -3 6 -1 10 4 10 6 0
11 -4 11 -10z m850 -50 c103 -14 185 -55 249 -127 51 -57 126 -194 136 -248 4
-21 -1 -15 -16 20 -35 79 -107 182 -152 219 -88 72 -175 101 -372 123 l-70 7
55 7 c84 9 90 9 170 -1z m-89 -40 c225 -26 350 -113 434 -305 33 -73 31 -79
-4 -24 -43 67 -161 169 -195 169 -6 0 7 -12 29 -26 56 -37 111 -91 148 -144
l31 -45 -39 31 c-22 17 -59 43 -83 58 -36 22 -43 24 -48 11 -11 -27 19 -78 94
-162 40 -46 69 -83 65 -83 -4 0 0 -5 9 -11 49 -28 63 -223 27 -346 -12 -40
-26 -73 -32 -73 -5 0 -6 8 -3 17 4 10 4 14 0 10 -4 -3 -20 5 -36 18 -34 28
-63 33 -54 9 3 -8 2 -13 -3 -9 -5 3 -19 -24 -31 -59 -11 -35 -32 -76 -44 -89
-13 -14 -21 -29 -18 -32 4 -3 -1 -3 -11 1 -9 3 -14 10 -11 15 3 5 -11 16 -30
24 -20 9 -36 21 -37 28 0 6 -4 1 -10 -11 -5 -13 -7 -28 -3 -33 3 -5 0 -9 -5
-9 -24 0 -8 58 36 133 30 52 42 81 35 86 -8 5 -5 16 9 36 11 17 44 71 74 121
30 50 66 107 81 125 19 25 16 24 -11 -6 -20 -22 -55 -71 -78 -110 -22 -38 -61
-102 -86 -140 -50 -77 -68 -115 -101 -220 -26 -81 -28 -120 -5 -145 15 -16 14
-20 -15 -51 -17 -19 -28 -40 -25 -47 3 -8 -4 -25 -14 -38 -29 -37 -34 -77 -17
-118 8 -20 12 -35 8 -32 -5 3 -14 1 -22 -5 -12 -7 -9 -9 10 -9 56 0 134 -75
146 -141 4 -19 4 -31 0 -27 -5 3 -28 -4 -53 -18 -94 -49 -164 -25 -191 64 -17
54 -16 60 16 89 l27 26 -25 -8 c-14 -3 -37 -15 -52 -26 -16 -11 -28 -18 -28
-16 0 2 -13 109 -30 238 -33 263 -32 292 17 399 17 36 33 73 37 84 5 14 10 16
19 8 10 -9 13 -4 14 24 1 29 -1 32 -10 19 -10 -13 -12 -10 -13 16 -1 20 2 26
7 17 7 -10 9 -10 9 -1 0 7 -21 26 -47 43 -27 16 -43 30 -38 30 6 0 24 -9 40
-20 39 -26 53 -26 30 0 -10 11 -44 30 -76 41 -32 12 -61 29 -63 38 -10 33 -28
238 -23 257 2 10 5 0 6 -24 1 -41 2 -43 19 -26 14 15 17 34 15 123 -2 122 7
161 46 193 31 27 47 58 28 58 -8 0 -6 4 3 10 11 7 11 10 2 10 -7 0 -10 5 -7
10 8 13 47 13 156 0z m-684 -248 c12 -75 20 -138 18 -140 -9 -10 -90 78 -106
116 -18 40 -18 46 -3 75 24 48 58 96 64 91 2 -3 15 -67 27 -142z m-117 13 c0
-5 -5 -3 -10 5 -5 8 -10 20 -10 25 0 6 5 3 10 -5 5 -8 10 -19 10 -25z m1158
-90 c52 -36 105 -98 118 -139 3 -11 12 -28 19 -36 7 -8 16 -33 19 -55 5 -28 4
-34 -3 -20 -5 11 -43 56 -86 100 -86 90 -135 151 -135 172 0 20 10 16 68 -22z
m-1110 -190 c-3 -3 -9 2 -12 12 -6 14 -5 15 5 6 7 -7 10 -15 7 -18z m72 -5 c1
8 17 -50 35 -130 17 -81 38 -163 45 -184 6 -20 10 -46 7 -57 -3 -10 -2 -17 3
-14 8 5 34 -145 26 -152 -3 -3 -8 16 -11 41 -6 38 -10 44 -21 35 -8 -6 -14
-17 -14 -24 0 -16 -49 -13 -60 5 -4 7 -6 20 -2 28 3 10 1 13 -5 9 -7 -4 -16 6
-22 25 -14 44 -63 387 -57 402 2 6 5 1 5 -11 1 -33 21 -39 22 -6 1 17 3 21 6
10 7 -25 23 -11 24 21 0 24 1 25 9 7 6 -14 9 -16 10 -5z m-293 -44 c39 -19 74
-40 79 -48 18 -28 44 -119 38 -130 -4 -6 -3 -8 3 -5 16 10 36 -48 28 -82 -4
-17 -10 -31 -15 -31 -5 0 -8 -14 -8 -31 1 -22 10 -37 30 -52 15 -11 28 -25 28
-31 0 -6 11 -19 26 -31 14 -11 26 -27 28 -35 4 -29 27 -61 38 -54 7 4 8 2 4
-5 -5 -7 14 -34 48 -68 31 -31 56 -63 56 -70 0 -7 5 -13 10 -13 13 0 13 16 0
41 -15 26 75 -27 155 -93 98 -80 258 -273 284 -340 8 -23 7 -25 -13 -21 -16 3
-27 -3 -40 -21 -22 -34 -66 -36 -66 -3 0 13 9 26 22 32 12 6 24 16 26 24 3 8
0 11 -6 7 -6 -3 -26 3 -46 15 -48 28 -62 21 -29 -15 l27 -29 -23 -18 c-27 -22
-40 -23 -63 -5 -11 8 -17 24 -15 43 2 24 6 29 22 26 19 -4 19 -4 3 10 -10 8
-18 19 -18 26 0 6 -3 11 -7 11 -5 0 -19 3 -33 6 l-25 5 25 -15 c24 -14 24 -14
-20 -10 -59 7 -148 52 -168 86 -14 23 -14 30 -2 52 11 22 11 32 0 66 -7 22
-21 48 -30 57 -9 10 -15 23 -13 29 2 6 -8 16 -22 22 -21 10 -29 9 -41 -2 -8
-8 -14 -20 -14 -27 0 -8 -7 -5 -19 7 -10 10 -17 21 -15 24 1 3 -11 7 -28 8
-33 3 -64 -14 -113 -60 -30 -28 -69 -35 -109 -19 -32 13 -250 376 -244 407 2
9 10 21 19 27 30 19 68 -2 116 -63 25 -33 48 -59 50 -57 1 2 -8 46 -21 98 -20
79 -23 112 -19 209 5 153 10 180 31 180 10 0 50 -15 89 -34z m1488 -96 c9 -72
-3 -60 -15 15 -5 31 -12 67 -15 78 -2 12 1 9 9 -8 8 -16 17 -55 21 -85z m12
38 c-3 -8 -6 -5 -6 6 -1 11 2 17 5 13 3 -3 4 -12 1 -19z m-745 -76 c-5 -14 -3
-15 9 -5 9 7 20 9 29 3 13 -8 13 -11 1 -22 -9 -8 -12 -9 -7 -1 4 8 -2 11 -20
10 -20 -2 -27 3 -30 20 -3 16 0 21 10 17 9 -3 12 -12 8 -22z m-5 -64 c-3 -8
-6 -5 -6 6 -1 11 2 17 5 13 3 -3 4 -12 1 -19z m730 -50 c-3 -8 -6 -5 -6 6 -1
11 2 17 5 13 3 -3 4 -12 1 -19z m-675 -52 c12 8 4 -21 -23 -80 l-19 -41 0 47
c0 25 -3 55 -6 65 -4 13 -3 14 4 5 7 -11 11 -10 17 5 5 12 9 14 12 5 3 -6 9
-9 15 -6z m-1062 -11 c-7 -9 -15 -13 -19 -10 -3 3 1 10 9 15 21 14 24 12 10
-5z m134 -40 l8 -30 -26 24 c-25 24 -36 48 -16 36 6 -3 10 2 10 12 1 15 2 15
9 3 5 -8 12 -28 15 -45z m1276 15 c-11 -22 -23 -40 -25 -40 -3 0 4 18 15 40
11 22 23 40 25 40 3 0 -4 -18 -15 -40z m-533 -57 c-3 -10 -5 -2 -5 17 0 19 2
27 5 18 2 -10 2 -26 0 -35z m734 20 c13 -16 12 -17 -3 -4 -17 13 -22 21 -14
21 2 0 10 -8 17 -17z m-724 -90 c-3 -10 -5 -4 -5 12 0 17 2 24 5 18 2 -7 2
-21 0 -30z m-250 5 c-3 -8 -6 -5 -6 6 -1 11 2 17 5 13 3 -3 4 -12 1 -19z m308
-396 c-1 -2 -13 10 -27 25 -13 15 -49 52 -80 81 -59 54 -66 66 -18 32 16 -12
36 -18 47 -14 13 4 14 3 5 -4 -11 -7 -10 -10 3 -16 23 -9 33 -7 17 3 -11 7
-11 11 2 24 19 19 20 35 5 111 -11 50 -14 56 -32 50 -19 -6 -19 -4 4 23 l24
29 26 -170 c15 -94 26 -172 24 -174z m410 328 c3 -6 -1 -7 -9 -4 -18 7 -21 14
-7 14 6 0 13 -4 16 -10z m-10 -20 c3 -5 1 -10 -4 -10 -6 0 -11 5 -11 10 0 6 2
10 4 10 3 0 8 -4 11 -10z m225 -25 c-7 -9 -27 -25 -44 -36 -24 -16 -22 -12 9
15 43 38 55 46 35 21z m-225 -25 c3 -5 1 -10 -4 -10 -6 0 -11 5 -11 10 0 6 2
10 4 10 3 0 8 -4 11 -10z m20 -20 c-3 -5 -12 -10 -18 -10 -7 0 -6 4 3 10 19
12 23 12 15 0z m125 -14 c0 -2 -7 -7 -16 -10 -8 -3 -12 -2 -9 4 6 10 25 14 25
6z m-1014 -89 c4 -4 2 -7 -5 -7 -7 0 -10 -4 -7 -8 3 -5 -1 -9 -9 -9 -8 0 -12
4 -9 8 2 4 0 10 -5 13 -5 3 -12 -4 -15 -17 -7 -21 -7 -21 -16 -2 -7 16 -9 17
-9 3 -1 -17 -41 -52 -49 -43 -3 2 10 20 28 38 24 26 40 34 61 33 16 -1 32 -5
35 -9z m-245 -84 c13 -16 12 -17 -3 -4 -10 7 -18 15 -18 17 0 8 8 3 21 -13z
m25 -42 c-4 -5 -2 -11 3 -13 5 -1 11 -12 13 -23 1 -11 14 -26 28 -33 14 -7 17
-10 8 -7 -19 5 -25 -10 -8 -18 6 -3 5 -4 -2 -3 -6 1 -25 19 -41 39 -25 30 -28
39 -17 52 14 16 25 21 16 6z m45 -38 c13 -16 12 -17 -3 -4 -17 13 -22 21 -14
21 2 0 10 -8 17 -17z m816 -151 c0 -27 6 -59 12 -70 7 -12 9 -22 7 -22 -12 0
-36 62 -36 93 0 27 6 47 15 47 1 0 2 -22 2 -48z m-803 23 c11 -9 14 -15 7 -15
-7 0 -19 7 -27 15 -20 19 -5 19 20 0z m50 -64 c-3 -3 -15 6 -27 18 l-22 24 27
-19 c14 -10 24 -21 22 -23z m611 9 c3 -6 -1 -7 -9 -4 -18 7 -21 14 -7 14 6 0
13 -4 16 -10z m117 -85 c7 -30 5 -42 -8 -56 -13 -15 -20 -16 -31 -8 -10 9 -13
8 -13 -1 0 -8 -8 -10 -24 -6 -21 5 -24 3 -21 -15 3 -12 1 -18 -3 -15 -4 4 -7
12 -7 16 0 5 -8 15 -19 23 -11 8 -20 29 -21 50 -3 37 -3 37 14 16 22 -28 63
-20 87 17 22 33 37 26 46 -21z m98 -10 c0 -11 -14 7 -31 40 -7 13 -3 12 10 -5
11 -14 21 -29 21 -35z m194 28 c4 -22 -11 -53 -25 -53 -6 0 -7 4 -4 10 3 5 1
18 -5 27 -11 17 -11 17 -6 1 6 -20 -10 -25 -17 -5 -2 6 8 19 22 28 29 18 31
18 35 -8z m-1834 -44 c0 -5 -7 -9 -15 -9 -8 0 -15 7 -15 15 0 9 6 12 15 9 8
-4 15 -10 15 -15z m1246 -27 c9 -5 104 -471 104 -506 0 -3 -7 -3 -16 1 -9 3
-25 7 -37 8 -12 1 -25 3 -28 4 -14 3 -101 339 -116 448 -5 40 -4 46 10 40 10
-4 17 -2 17 3 0 12 50 13 66 2z m321 -17 c-4 -8 -11 -15 -17 -15 -6 0 -6 7 2
20 14 22 24 19 15 -5z m64 -267 c6 -76 9 -144 6 -152 -4 -9 -14 -12 -26 -9
-14 3 -30 -4 -50 -24 l-29 -29 -12 114 c-10 86 -10 119 -2 131 7 9 18 31 26
48 9 20 20 31 28 28 19 -8 24 88 4 104 -12 10 -12 16 2 44 l17 32 12 -75 c6
-41 17 -137 24 -212z m-323 253 c91 -44 112 -58 112 -71 -1 -12 -4 -11 -15 4
-15 19 -15 19 -15 -2 0 -21 28 -77 62 -121 l18 -24 0 28 c0 63 10 12 21 -103
8 -89 8 -126 -1 -139 -10 -16 -10 -16 -5 3 3 12 1 32 -4 45 -10 24 -14 15 -13
-26 1 -17 0 -17 -4 -2 -3 9 -10 15 -15 12 -5 -4 -9 -1 -9 4 0 6 5 11 10 11 6
0 10 4 10 8 0 4 -12 8 -27 7 -21 0 -27 -5 -25 -18 2 -10 -2 -25 -9 -33 -6 -7
-9 -25 -7 -39 8 -39 -10 -29 -21 13 -25 93 -92 452 -85 452 3 0 12 -4 22 -9z
m232 -15 c0 -2 -7 -7 -16 -10 -8 -3 -12 -2 -9 4 6 10 25 14 25 6z m310 -160
c0 -14 -5 -28 -10 -31 -6 -4 -8 -10 -5 -14 2 -5 -4 -16 -14 -25 -13 -12 -21
-14 -26 -6 -3 5 -11 8 -16 5 -5 -4 -17 -1 -26 5 -17 11 -17 11 0 6 22 -7 49 3
41 16 -4 6 -1 9 7 6 20 -7 42 19 36 42 -3 11 -1 20 4 20 5 0 9 -11 9 -24z
m-1563 -158 c13 -12 23 -17 23 -12 0 15 199 10 249 -7 32 -10 47 -22 59 -47
28 -57 13 -67 -112 -69 -120 -2 -155 -15 -191 -69 -11 -16 -24 -31 -30 -33 -5
-2 -20 16 -32 40 -17 33 -23 62 -23 116 0 107 12 124 57 81z m1340 -115 c6
-16 -32 -358 -43 -387 -6 -16 -23 -24 -72 -36 -30 -7 -35 -5 -52 23 -45 74
-184 356 -179 362 14 13 60 -9 77 -37 13 -22 21 -27 37 -22 23 8 103 11 124 4
8 -3 18 10 27 40 19 62 66 93 81 53z m-155 -23 c6 0 6 -6 -2 -15 -7 -8 -16
-12 -21 -9 -5 3 -9 1 -9 -4 0 -5 -11 -14 -25 -20 -14 -6 -25 -8 -25 -3 0 9 51
36 63 33 4 -1 6 8 4 20 -2 13 -2 17 0 11 3 -7 9 -13 15 -13z m37 -12 c0 -24
-3 -38 -5 -31 -3 7 -13 10 -22 7 -15 -5 -16 -4 -1 8 17 14 19 19 19 43 0 8 2
15 5 15 3 0 5 -19 4 -42z m-92 0 c-3 -8 -6 -5 -6 6 -1 11 2 17 5 13 3 -3 4
-12 1 -19z m152 -448 c0 -14 -5 -34 -10 -45 -7 -16 -8 -14 -5 12 5 28 2 32
-24 38 -42 9 -38 26 5 22 30 -2 35 -5 34 -27z m-29 -26 c0 -8 -4 -12 -10 -9
-5 3 -10 10 -10 16 0 5 5 9 10 9 6 0 10 -7 10 -16z"/>
<path d="M3742 3300 c0 -14 2 -19 5 -12 2 6 2 18 0 25 -3 6 -5 1 -5 -13z"/>
<path d="M3880 2966 c0 -8 4 -17 9 -20 5 -4 7 3 4 14 -6 23 -13 26 -13 6z"/>
<path d="M4025 2500 c-3 -5 -1 -10 4 -10 6 0 11 5 11 10 0 6 -2 10 -4 10 -3 0
-8 -4 -11 -10z"/>
<path d="M3147 2995 c-4 -8 -3 -16 1 -19 4 -3 9 4 9 15 2 23 -3 25 -10 4z"/>
<path d="M3000 2373 c0 -6 8 -17 18 -24 16 -13 16 -13 2 6 -8 11 -16 22 -17
24 -2 2 -3 0 -3 -6z"/>
<path d="M3776 1685 c-3 -9 -6 -22 -5 -28 0 -7 5 -1 10 12 5 13 8 26 5 28 -2
2 -6 -3 -10 -12z"/>
<path d="M3680 1610 c0 -5 5 -10 10 -10 6 0 10 5 10 10 0 6 -4 10 -10 10 -5 0
-10 -4 -10 -10z"/>
<path d="M4120 1770 c-8 -5 -12 -12 -9 -15 4 -3 12 1 19 10 14 17 11 19 -10 5z"/>
<path d="M3190 4530 c-10 -6 14 -7 70 -3 47 3 87 7 89 9 10 9 -145 3 -159 -6z"/>
<path d="M3332 4114 c4 -21 22 -23 26 -1 2 10 -3 17 -13 17 -10 0 -15 -6 -13
-16z"/>
<path d="M4880 3136 c0 -7 -13 -19 -30 -26 -16 -7 -30 -16 -30 -20 0 -4 -9
-10 -20 -13 -25 -6 -43 -53 -34 -87 4 -14 8 -32 9 -41 5 -42 16 -65 37 -74 13
-5 27 -20 33 -32 5 -13 15 -23 22 -23 7 0 13 -7 13 -15 0 -8 3 -15 8 -15 4 0
24 -16 44 -35 20 -19 40 -35 44 -35 4 0 15 -7 25 -16 9 -8 23 -16 31 -18 7 -1
19 -5 25 -9 8 -5 27 5 49 25 108 99 106 95 75 156 -14 27 -19 59 -19 120 -1
58 -5 87 -15 97 -8 8 -17 11 -21 8 -3 -4 -6 -2 -6 4 0 6 -28 13 -62 17 -34 3
-69 12 -77 20 -24 20 -101 30 -101 12z"/>
<path d="M4183 2537 c-3 -5 -11 -6 -18 -3 -8 3 -19 -2 -25 -9 -7 -8 -16 -12
-21 -9 -5 3 -9 2 -9 -3 -1 -4 -12 -21 -26 -38 -15 -16 -23 -24 -19 -16 5 9 4
12 -3 7 -6 -3 -11 -14 -11 -24 0 -9 -2 -32 -4 -50 -4 -31 27 -91 40 -78 3 3
16 -7 30 -22 14 -15 23 -20 20 -11 -3 9 1 16 8 16 7 0 11 -6 8 -14 -7 -18 26
-6 50 19 10 10 27 18 37 18 11 0 20 5 20 10 0 6 -7 10 -15 10 -9 0 -12 6 -9
15 4 8 9 13 13 11 3 -2 6 26 6 62 0 48 -4 71 -15 79 -13 11 -11 12 10 13 19 0
22 3 12 13 -14 13 -71 17 -79 4z"/>
<path d="M5625 2340 c-16 -74 -61 -105 -205 -141 -47 -11 -104 -32 -126 -45
-43 -24 -54 -45 -54 -101 0 -26 -4 -33 -20 -33 -11 0 -20 -5 -20 -11 0 -6 -6
-17 -14 -25 -11 -11 -16 -11 -19 -1 -4 9 -6 9 -6 0 -2 -23 -58 -14 -90 13 -17
14 -31 31 -31 37 0 11 -20 26 -84 64 -11 7 -24 21 -28 33 -4 11 -16 23 -25 27
-30 11 -42 28 -32 44 5 8 9 28 9 44 0 27 -7 33 -72 64 -64 30 -79 33 -133 29
-65 -6 -139 -37 -149 -63 -3 -9 -6 -29 -6 -43 0 -15 -9 -46 -20 -70 -14 -31
-19 -63 -18 -118 1 -83 -12 -103 -64 -104 -17 0 -28 -5 -28 -14 0 -8 -7 -16
-15 -20 -20 -7 -19 -38 3 -62 28 -33 41 -61 32 -70 -5 -5 -11 -27 -13 -49 -9
-81 -22 -94 -84 -86 -7 1 -13 -3 -13 -9 0 -5 -8 -10 -18 -10 -11 0 -24 -11
-30 -25 -6 -14 -16 -25 -22 -25 -7 0 -9 -19 -4 -58 6 -56 5 -61 -25 -94 -17
-20 -31 -41 -31 -47 0 -6 -4 -11 -9 -11 -5 0 -14 -14 -20 -30 -7 -22 -7 -29 0
-24 8 4 8 1 1 -12 -5 -11 -13 -43 -17 -71 l-7 -53 64 0 c36 0 114 -7 174 -16
60 -9 163 -16 229 -17 139 -1 170 9 200 65 l19 36 -22 91 c-17 66 -20 96 -13
110 11 19 59 41 92 41 10 0 23 9 29 19 5 11 19 23 30 26 11 3 20 11 20 16 0
15 35 45 61 52 13 4 58 2 100 -5 96 -14 122 -8 143 36 27 57 21 102 -19 143
-20 21 -43 38 -51 39 -23 4 -30 14 -10 14 11 0 14 4 10 12 -5 8 -2 9 9 5 10
-3 17 -2 17 3 0 5 -10 11 -22 13 l-23 4 23 2 c12 0 22 7 22 14 0 14 52 57 70
57 5 0 10 9 10 20 0 17 7 20 49 20 49 0 65 -10 66 -39 0 -7 10 -20 23 -28 21
-15 22 -14 22 11 0 32 12 33 42 3 19 -19 31 -22 71 -19 32 3 47 9 47 18 0 12
19 19 43 15 4 0 7 3 7 9 0 5 6 7 13 4 8 -3 22 12 36 36 12 22 27 40 33 40 5 0
8 7 5 15 -4 8 0 27 8 42 17 33 20 77 5 68 -7 -4 -9 2 -5 17 4 16 1 29 -9 37
-9 8 -16 24 -16 38 0 29 -39 123 -51 123 -5 0 -9 -5 -9 -12 0 -6 -6 -3 -14 7
-13 18 -14 17 -21 -15z"/>
<path d="M4200 2245 c-7 -9 -8 -15 -2 -15 5 0 12 7 16 15 3 8 4 15 2 15 -2 0
-9 -7 -16 -15z"/>
<path d="M4935 2190 c-3 -5 1 -10 9 -10 9 0 16 5 16 10 0 6 -4 10 -9 10 -6 0
-13 -4 -16 -10z"/>
<path d="M4177 1596 c-8 -21 3 -56 19 -56 10 0 11 7 2 33 -14 40 -14 41 -21
23z"/>
<path d="M3765 890 c30 -8 172 -13 164 -6 -2 2 -47 6 -99 8 -52 3 -81 2 -65
-2z"/>
<path d="M3730 845 l-85 -12 149 -1 c81 -1 165 -4 185 -7 27 -4 31 -3 16 4
-11 5 -57 10 -103 10 -53 1 -81 5 -77 11 3 6 5 9 3 8 -2 0 -41 -6 -88 -13z"/>
<path d="M3753 783 c9 -2 23 -2 30 0 6 3 -1 5 -18 5 -16 0 -22 -2 -12 -5z"/>
<path d="M3618 773 c12 -2 32 -2 45 0 12 2 2 4 -23 4 -25 0 -35 -2 -22 -4z"/>
<path d="M3513 763 c9 -2 23 -2 30 0 6 3 -1 5 -18 5 -16 0 -22 -2 -12 -5z"/>
<path d="M4018 743 c23 -2 59 -2 80 0 20 2 1 4 -43 4 -44 0 -61 -2 -37 -4z"/>
<path d="M4413 743 c20 -2 54 -2 75 0 20 2 3 4 -38 4 -41 0 -58 -2 -37 -4z"/>
<path d="M3282 728 c-9 -4 78 -6 193 -6 233 1 225 6 -18 10 -87 2 -166 0 -175
-4z"/>
<path d="M3808 733 c18 -2 45 -2 60 0 15 2 0 4 -33 4 -33 0 -45 -2 -27 -4z"/>
<path d="M4585 731 c28 -5 62 -12 76 -16 16 -4 30 -2 33 4 4 6 -1 11 -12 11
-10 0 -48 2 -83 5 -61 4 -62 4 -14 -4z"/>
</g>
</svg>
